# xmcd CD database file
#
# Track frame offsets:
#	150
#	27158
#	36210
#	64204
#
# Disc length: 1282 seconds
#
# Revision: 0
# Processed by: cddbd v1.5.1PL0 Copyright (c) Steve Scherf et al.
# Submitted via: CDex 1.50beta10
#
DISCID=2e050004
DTITLE=detroit7 - COME ON
DYEAR=2004
DGENRE=Rock
TTITLE0=COME ON
TTITLE1=BUZZ OFF
TTITLE2=SHOT MY RIGHT TEMPLE
TTITLE3=CD EXTRA
EXTD=YEAR: 2004
EXTT0=
EXTT1=
EXTT2=
EXTT3=
PLAYORDER=
